# xmcd CD database file
#
# Track frame offsets:
#	150
#	17705
#	31862
#
# Disc length: 642 seconds
#
# Revision: 4
# Processed by: cddbd v1.5.2PL0 Copyright (c) Steve Scherf et al.
# Submitted via: CDex 1.51
#
DISCID=17028003
DTITLE=Ilse DeLange - Flying Blind
DYEAR=1998
DGENRE=Country
TTITLE0=Flying Blind
TTITLE1=What Does Your Heart Say Now
TTITLE2=Old Tears
EXTD=Children Of Sanchez - 1978\n\n YEAR: 1998
EXTT0=
EXTT1=
EXTT2=
PLAYORDER=
